<?xml version="1.0" standalone="no"?>
<!DOCTYPE svg PUBLIC "-//W3C//DTD SVG 20010904//EN"
 "http://www.w3.org/TR/2001/REC-SVG-20010904/DTD/svg10.dtd">
<svg version="1.0" xmlns="http://www.w3.org/2000/svg"
 width="300.000000pt" height="300.000000pt" viewBox="0 0 300.000000 300.000000"
 preserveAspectRatio="xMidYMid meet">
<metadata>
Created by potrace 1.14, written by Peter Selinger 2001-2017
</metadata>
<g transform="translate(0.000000,300.000000) scale(0.100000,-0.100000)"
fill="#000000" stroke="none">
<path d="M187 2986 c-85 -31 -155 -104 -177 -187 -7 -24 -9 -486 -8 -1321 l3
-1283 22 -41 c28 -53 74 -99 127 -127 l41 -22 1305 0 1305 0 41 22 c53 28 99
74 127 127 l22 41 0 1305 0 1305 -22 41 c-28 53 -74 99 -127 127 l-41 22
-1290 2 c-1065 2 -1297 0 -1328 -11z m1183 -765 c0 -16 -11 -20 -77 -25 -43
-4 -106 -12 -140 -18 l-63 -10 0 -78 0 -78 199 -121 c109 -67 204 -121 211
-121 7 0 102 54 211 121 l199 121 0 78 0 78 -67 11 c-38 5 -101 13 -140 17
-63 5 -73 9 -73 25 0 18 15 19 455 19 438 0 455 -1 455 -19 0 -15 -9 -19 -48
-23 -26 -3 -89 -17 -140 -33 l-92 -28 0 -548 0 -548 121 -108 c66 -59 124
-109 127 -110 4 -1 53 -7 110 -13 89 -11 102 -15 102 -31 0 -18 -17 -19 -545
-19 -524 0 -545 1 -545 19 0 16 14 19 113 30 62 6 125 11 140 11 l27 0 0 78 0
79 -201 181 c-111 100 -205 182 -209 182 -4 0 -98 -82 -209 -181 l-201 -182 0
-78 0 -79 27 0 c15 0 78 -5 140 -11 99 -11 113 -14 113 -30 0 -18 -21 -19
-545 -19 -528 0 -545 1 -545 19 0 16 13 20 103 31 56 6 105 12 108 13 4 1 61
51 128 110 l121 108 0 548 0 548 -90 27 c-50 15 -113 30 -140 33 -40 5 -50 10
-50 24 0 18 18 19 455 19 439 0 455 -1 455 -19z"/>
<path d="M1090 1725 l0 -215 38 23 c20 13 98 61 172 107 74 45 136 84 138 85
2 2 -76 51 -172 109 l-176 105 0 -214z"/>
<path d="M1731 1833 l-173 -106 48 -30 c27 -17 106 -65 177 -109 l127 -78 0
215 c0 118 -1 215 -2 214 -2 0 -81 -48 -177 -106z"/>
<path d="M1173 1497 l-83 -52 0 -48 0 -48 100 88 c55 48 99 92 97 98 -7 21
-35 12 -114 -38z"/>
<path d="M1714 1539 c-3 -6 0 -16 7 -23 8 -7 53 -47 102 -90 l87 -78 0 49 0
49 -85 52 c-90 55 -100 59 -111 41z"/>
</g>
</svg>
